<svg xmlns="http://www.w3.org/2000/svg" width="24" height="24" viewBox="0 0 24 24">
  <path d="M6,10.561c0-4.59,4-8.311,8.939-8.311s8.939,3.721,8.939,8.311v.923a9.728,9.728,0,0,0,2.8,6.8.877.877,0,0,1,.227.839.95.95,0,0,1-.62.645,34.526,34.526,0,0,1-6.4,1.53,4.532,4.532,0,0,1-2.366,4.278,5.289,5.289,0,0,1-5.174,0A4.532,4.532,0,0,1,9.986,21.3a34.567,34.567,0,0,1-6.4-1.532.95.95,0,0,1-.62-.645.877.877,0,0,1,.226-.839A9.727,9.727,0,0,0,6,11.484Zm5.962,10.958a2.728,2.728,0,0,0,1.451,2.5,3.174,3.174,0,0,0,3.052,0,2.728,2.728,0,0,0,1.451-2.5,35.683,35.683,0,0,1-5.954,0Z" transform="translate(-2.939 -2.25)" fill="#fff" fill-rule="evenodd"/>
</svg>
